# xmcd CD database file
#
# Track frame offsets:
#	150
#	14824
#	46222
#	63365
#	80584
#	97788
#	114899
#	146787
#	168998
#	181911
#	202759
#	221011
#
# Disc length: 3500 seconds
#
# Revision: 0
# Processed by: cddbd v1.5.2PL0 Copyright (c) Steve Scherf et al.
# Submitted via: Feurio! 1.68 - http://www.feurio.com
#
DISCID=9d0daa0c
DTITLE=Chamber Brothers - Live
DYEAR=1900
DGENRE=Blues
TTITLE0=The Chambers Brothers - Wolfman Jack Intro - You're So Fine
TTITLE1=The Chambers Brothers - Mellow Down Easy
TTITLE2=The Chambers Brothers - Mustang Sally
TTITLE3=The Chambers Brothers - You Are My Sunshine
TTITLE4=The Chambers Brothers - Mean Ol' Frisco
TTITLE5=The Chambers Brothers - Please Please Please
TTITLE6=The Chambers Brothers - High Heel Sneakers
TTITLE7=The Chambers Brothers - All Strung Out
TTITLE8=The Chambers Brothers - I Got It
TTITLE9=The Chambers Brothers - Your Old Lady
TTITLE10=The Chambers Brothers - People Get Ready
TTITLE11=The Chambers Brothers - Time Has Come Today
EXTD=
EXTT0=
EXTT1=
EXTT2=
EXTT3=
EXTT4=
EXTT5=
EXTT6=
EXTT7=
EXTT8=
EXTT9=
EXTT10=
EXTT11=
PLAYORDER=
